<?xml version="1.0" encoding="UTF-8"?>
<!DOCTYPE svg PUBLIC "-//W3C//DTD SVG 1.1//EN" "http://www.w3.org/Graphics/SVG/1.1/DTD/svg11.dtd">
<svg
    xmlns="http://www.w3.org/2000/svg"
    xmlns:xlink="http://www.w3.org/1999/xlink" version="1.1" width="141px" height="141px" viewBox="-0.5 -0.5 141 141">
    <defs/>
    <g>
        <rect class="led" led="0" x="0" y="0" width="20" height="20" stroke="none" pointer-events="all"/>
        <rect class="led" led="1" x="40" y="0" width="20" height="20" stroke="none" pointer-events="all"/>
        <rect class="led" led="2" x="80" y="0" width="20" height="20" stroke="none" pointer-events="all"/>
        <rect class="led" led="3" x="120" y="0" width="20" height="20" stroke="none" pointer-events="all"/>
        <rect class="led" led="4" x="0" y="40" width="20" height="20" stroke="none" pointer-events="all"/>
        <rect class="led" led="5" x="40" y="40" width="20" height="20" stroke="none" pointer-events="all"/>
        <rect class="led" led="6" x="80" y="40" width="20" height="20" stroke="none" pointer-events="all"/>
        <rect class="led" led="7" x="120" y="40" width="20" height="20" stroke="none" pointer-events="all"/>
        <rect class="led" led="8" x="0" y="80" width="20" height="20" stroke="none" pointer-events="all"/>
        <rect class="led" led="9" x="40" y="80" width="20" height="20" stroke="none" pointer-events="all"/>
        <rect class="led" led="10" x="80" y="80" width="20" height="20" stroke="none" pointer-events="all"/>
        <rect class="led" led="11" x="120" y="80" width="20" height="20" stroke="none" pointer-events="all"/>
        <rect class="led" led="12" x="0" y="120" width="20" height="20" stroke="none" pointer-events="all"/>
        <rect class="led" led="13" x="40" y="120" width="20" height="20" stroke="none" pointer-events="all"/>
        <rect class="led" led="14" x="80" y="120" width="20" height="20" stroke="none" pointer-events="all"/>
        <rect class="led" led="15" x="120" y="120" width="20" height="20" stroke="none" pointer-events="all"/>
    </g>
</svg>