<svg width="43mm" height="133mm" version="1.1" viewBox="0 0 43 133" xmlns="http://www.w3.org/2000/svg">
 <g transform="translate(0 -3.3251)">
  <rect x="12" y="3.3251" width="6.0086" height="129" ry="1.0977" fill="#4d4d4d" stroke-width="0"/>
  <g fill="#cccccc" font-family="sans-serif" font-size="4.5361px" stroke-width=".11341">
   <text transform="scale(.99996 1)" x="13.517635" y="12.057132" style="line-height:1.25" xml:space="preserve"><tspan x="13.517635" y="12.057132" fill="#cccccc" stroke-width=".11341">0</tspan></text>
   <text transform="scale(.99996 1)" x="13.668732" y="28.165087" style="line-height:1.25" xml:space="preserve"><tspan x="13.668732" y="28.165087" fill="#cccccc" stroke-width=".11341">1</tspan></text>
   <text transform="scale(.99996 1)" x="13.668732" y="44.264351" style="line-height:1.25" xml:space="preserve"><tspan x="13.668732" y="44.264351" fill="#cccccc" stroke-width=".11341">2</tspan></text>
   <text transform="scale(.99996 1)" x="13.517635" y="60.355808" style="line-height:1.25" xml:space="preserve"><tspan x="13.517635" y="60.355808" fill="#cccccc" stroke-width=".11341">3</tspan></text>
   <text transform="scale(.99996 1)" x="13.668732" y="76.463768" style="line-height:1.25" xml:space="preserve"><tspan x="13.668732" y="76.463768" fill="#cccccc" stroke-width=".11341">4</tspan></text>
   <text transform="scale(.99996 1)" x="13.668732" y="92.563034" style="line-height:1.25" xml:space="preserve"><tspan x="13.668732" y="92.563034" fill="#cccccc" stroke-width=".11341">5</tspan></text>
   <text transform="scale(.99996 1)" x="13.668732" y="108.66237" style="line-height:1.25" xml:space="preserve"><tspan x="13.668732" y="108.66237" fill="#cccccc" stroke-width=".11341">6</tspan></text>
   <text transform="scale(.99996 1)" x="13.668732" y="124.76161" style="line-height:1.25" xml:space="preserve"><tspan x="13.668732" y="124.76161" fill="#cccccc" stroke-width=".11341">7</tspan></text>
  </g>
  <rect transform="rotate(90)" x="3.375" y="-10" width="128.8" height="10" ry="0"/>
  <g>
   <rect transform="rotate(90)" x="7.4036" y="-7.9998" width="6.0002" height="6" ry=".25668" fill="#fff" stroke="#808080" stroke-width=".1"/>
   <ellipse transform="rotate(90)" cx="10.404" cy="-5" rx="2.5001" ry="2.5" stroke="#666" stroke-width=".1" led="0"/>
   <g fill="#999" stroke-width="0">
    <rect transform="rotate(90)" x="8.4036" y="-2.5" width="1" height="1" ry=".10959"/>
    <rect transform="rotate(90)" x="11.404" y="-2.5" width="1" height="1" ry=".10959"/>
    <rect transform="rotate(90)" x="8.4036" y="-8.5" width="1" height="1" ry=".10959"/>
    <rect transform="rotate(90)" x="11.404" y="-8.5" width="1" height="1" ry=".10959"/>
   </g>
   <rect transform="rotate(90)" x="23.504" y="-7.9998" width="6.0002" height="6" ry=".25668" fill="#fff" stroke="#808080" stroke-width=".1"/>
   <ellipse transform="rotate(90)" cx="26.504" cy="-5" rx="2.5001" ry="2.5" stroke="#666" stroke-width=".1" led="1"/>
   <g fill="#999" stroke-width="0">
    <rect transform="rotate(90)" x="24.504" y="-2.5" width="1" height="1" ry=".10959"/>
    <rect transform="rotate(90)" x="27.504" y="-2.5" width="1" height="1" ry=".10959"/>
    <rect transform="rotate(90)" x="24.504" y="-8.5" width="1" height="1" ry=".10959"/>
    <rect transform="rotate(90)" x="27.504" y="-8.5" width="1" height="1" ry=".10959"/>
   </g>
   <rect transform="rotate(90)" x="39.604" y="-7.9998" width="6.0002" height="6" ry=".25668" fill="#fff" stroke="#808080" stroke-width=".1"/>
   <ellipse transform="rotate(90)" cx="42.604" cy="-5" rx="2.5001" ry="2.5" stroke="#666" stroke-width=".1" led="2"/>
   <g fill="#999" stroke-width="0">
    <rect transform="rotate(90)" x="40.604" y="-2.5" width="1" height="1" ry=".10959"/>
    <rect transform="rotate(90)" x="43.604" y="-2.5" width="1" height="1" ry=".10959"/>
    <rect transform="rotate(90)" x="40.604" y="-8.5" width="1" height="1" ry=".10959"/>
    <rect transform="rotate(90)" x="43.604" y="-8.5" width="1" height="1" ry=".10959"/>
   </g>
   <rect transform="rotate(90)" x="55.704" y="-7.9998" width="6.0002" height="6" ry=".25668" fill="#fff" stroke="#808080" stroke-width=".1"/>
   <ellipse transform="rotate(90)" cx="58.704" cy="-5" rx="2.5001" ry="2.5" stroke="#666" stroke-width=".1" led="3"/>
   <g fill="#999" stroke-width="0">
    <rect transform="rotate(90)" x="56.704" y="-2.5" width="1" height="1" ry=".10959"/>
    <rect transform="rotate(90)" x="59.704" y="-2.5" width="1" height="1" ry=".10959"/>
    <rect transform="rotate(90)" x="56.704" y="-8.5" width="1" height="1" ry=".10959"/>
    <rect transform="rotate(90)" x="59.704" y="-8.5" width="1" height="1" ry=".10959"/>
   </g>
   <rect transform="rotate(90)" x="71.804" y="-7.9998" width="6.0002" height="6" ry=".25668" fill="#fff" stroke="#808080" stroke-width=".1"/>
   <ellipse transform="rotate(90)" cx="74.804" cy="-5" rx="2.5001" ry="2.5" stroke="#666" stroke-width=".1" led="4"/>
   <g fill="#999" stroke-width="0">
    <rect transform="rotate(90)" x="72.804" y="-2.5" width="1" height="1" ry=".10959"/>
    <rect transform="rotate(90)" x="75.804" y="-2.5" width="1" height="1" ry=".10959"/>
    <rect transform="rotate(90)" x="72.804" y="-8.5" width="1" height="1" ry=".10959"/>
    <rect transform="rotate(90)" x="75.804" y="-8.5" width="1" height="1" ry=".10959"/>
   </g>
   <rect transform="rotate(90)" x="87.904" y="-7.9998" width="6.0002" height="6" ry=".25668" fill="#fff" stroke="#808080" stroke-width=".1"/>
   <ellipse transform="rotate(90)" cx="90.904" cy="-5" rx="2.5001" ry="2.5" stroke="#666" stroke-width=".1" led="5"/>
   <g fill="#999" stroke-width="0">
    <rect transform="rotate(90)" x="88.904" y="-2.5" width="1" height="1" ry=".10959"/>
    <rect transform="rotate(90)" x="91.904" y="-2.5" width="1" height="1" ry=".10959"/>
    <rect transform="rotate(90)" x="88.904" y="-8.5" width="1" height="1" ry=".10959"/>
    <rect transform="rotate(90)" x="91.904" y="-8.5" width="1" height="1" ry=".10959"/>
   </g>
   <rect transform="rotate(90)" x="104" y="-7.9998" width="6.0002" height="6" ry=".25668" fill="#fff" stroke="#808080" stroke-width=".1"/>
   <ellipse transform="rotate(90)" cx="107" cy="-5" rx="2.5001" ry="2.5" stroke="#666" stroke-width=".1" led="6"/>
   <g fill="#999" stroke-width="0">
    <rect transform="rotate(90)" x="105" y="-2.5" width="1" height="1" ry=".10959"/>
    <rect transform="rotate(90)" x="108" y="-2.5" width="1" height="1" ry=".10959"/>
    <rect transform="rotate(90)" x="105" y="-8.5" width="1" height="1" ry=".10959"/>
    <rect transform="rotate(90)" x="108" y="-8.5" width="1" height="1" ry=".10959"/>
   </g>
   <rect transform="rotate(90)" x="120.1" y="-7.9998" width="6.0002" height="6" ry=".25668" fill="#fff" stroke="#808080" stroke-width=".1"/>
   <ellipse transform="rotate(90)" cx="123.1" cy="-5" rx="2.5001" ry="2.5" stroke="#666" stroke-width=".1" led="7"/>
   <g fill="#999" stroke-width="0">
    <rect transform="rotate(90)" x="121.1" y="-2.5" width="1" height="1" ry=".10959"/>
    <rect transform="rotate(90)" x="124.1" y="-2.5" width="1" height="1" ry=".10959"/>
    <rect transform="rotate(90)" x="121.1" y="-8.5" width="1" height="1" ry=".10959"/>
    <rect transform="rotate(90)" x="124.1" y="-8.5" width="1" height="1" ry=".10959"/>
   </g>
  </g>
  <g stroke-width="0">
   <rect transform="rotate(90)" x="14.697" y="-5.75" width=".60002" height="1.5" ry=".16439" fill="#999"/>
   <rect transform="matrix(0,-1,-1,0,0,0)" x="-15.297" y="-5.25" width=".60002" height=".5" ry=".054797" fill="#1a1a1a"/>
   <g fill="#fff">
    <rect transform="rotate(90)" x="14.825" y="-7.12" width="2" height=".30089" ry=".15045"/>
    <rect transform="rotate(133.36)" x="6.4884" y="-16.666" width="1" height=".30089" ry=".15045"/>
    <rect transform="rotate(223.36)" x="-16.667" y="-7.4897" width="1" height=".30089" ry=".15045"/>
    <rect transform="rotate(90)" x="14.825" y="-3.209" width="2" height=".30089" ry=".15045"/>
    <rect transform="rotate(133.36)" x="9.1736" y="-13.822" width="1" height=".30089" ry=".15045"/>
    <rect transform="rotate(223.36)" x="-13.823" y="-10.175" width="1" height=".30089" ry=".15045"/>
   </g>
   <rect transform="rotate(90)" x="30.797" y="-5.75" width=".60002" height="1.5" ry=".16439" fill="#999"/>
   <rect transform="matrix(0,-1,-1,0,0,0)" x="-31.397" y="-5.25" width=".60002" height=".5" ry=".054797" fill="#1a1a1a"/>
   <g fill="#fff">
    <rect transform="rotate(90)" x="30.925" y="-7.12" width="2" height=".30089" ry=".15045"/>
    <rect transform="rotate(133.36)" x="18.194" y="-27.719" width="1" height=".30089" ry=".15045"/>
    <rect transform="rotate(223.36)" x="-27.72" y="-19.195" width="1" height=".30089" ry=".15045"/>
    <rect transform="rotate(90)" x="30.925" y="-3.209" width="2" height=".30089" ry=".15045"/>
    <rect transform="rotate(133.36)" x="20.879" y="-24.876" width="1" height=".30089" ry=".15045"/>
    <rect transform="rotate(223.36)" x="-24.877" y="-21.881" width="1" height=".30089" ry=".15045"/>
   </g>
   <rect transform="rotate(90)" x="46.897" y="-5.75" width=".60002" height="1.5" ry=".16439" fill="#999"/>
   <rect transform="matrix(0,-1,-1,0,0,0)" x="-47.497" y="-5.25" width=".60002" height=".5" ry=".054797" fill="#1a1a1a"/>
   <g fill="#fff">
    <rect transform="rotate(90)" x="47.025" y="-7.12" width="2" height=".30089" ry=".15045"/>
    <rect transform="rotate(133.36)" x="29.9" y="-38.773" width="1" height=".30089" ry=".15045"/>
    <rect transform="rotate(223.36)" x="-38.774" y="-30.901" width="1" height=".30089" ry=".15045"/>
    <rect transform="rotate(90)" x="47.025" y="-3.209" width="2" height=".30089" ry=".15045"/>
    <rect transform="rotate(133.36)" x="32.585" y="-35.93" width="1" height=".30089" ry=".15045"/>
    <rect transform="rotate(223.36)" x="-35.931" y="-33.586" width="1" height=".30089" ry=".15045"/>
   </g>
   <rect transform="rotate(90)" x="62.997" y="-5.75" width=".60002" height="1.5" ry=".16439" fill="#999"/>
   <rect transform="matrix(0,-1,-1,0,0,0)" x="-63.597" y="-5.25" width=".60002" height=".5" ry=".054797" fill="#1a1a1a"/>
   <g fill="#fff">
    <rect transform="rotate(90)" x="63.125" y="-7.12" width="2" height=".30089" ry=".15045"/>
    <rect transform="rotate(133.36)" x="41.606" y="-49.827" width="1" height=".30089" ry=".15045"/>
    <rect transform="rotate(223.36)" x="-49.828" y="-42.607" width="1" height=".30089" ry=".15045"/>
    <rect transform="rotate(90)" x="63.125" y="-3.209" width="2" height=".30089" ry=".15045"/>
    <rect transform="rotate(133.36)" x="44.291" y="-46.983" width="1" height=".30089" ry=".15045"/>
    <rect transform="rotate(223.36)" x="-46.985" y="-45.292" width="1" height=".30089" ry=".15045"/>
   </g>
   <rect transform="rotate(90)" x="79.097" y="-5.75" width=".60002" height="1.5" ry=".16439" fill="#999"/>
   <rect transform="matrix(0,-1,-1,0,0,0)" x="-79.697" y="-5.25" width=".60002" height=".5" ry=".054797" fill="#1a1a1a"/>
   <g fill="#fff">
    <rect transform="rotate(90)" x="79.225" y="-7.12" width="2" height=".30089" ry=".15045"/>
    <rect transform="rotate(133.36)" x="53.311" y="-60.881" width="1" height=".30089" ry=".15045"/>
    <rect transform="rotate(223.36)" x="-60.882" y="-54.312" width="1" height=".30089" ry=".15045"/>
    <rect transform="rotate(90)" x="79.225" y="-3.209" width="2" height=".30089" ry=".15045"/>
    <rect transform="rotate(133.36)" x="55.996" y="-58.037" width="1" height=".30089" ry=".15045"/>
    <rect transform="rotate(223.36)" x="-58.038" y="-56.998" width="1" height=".30089" ry=".15045"/>
   </g>
   <rect transform="rotate(90)" x="95.197" y="-5.75" width=".60002" height="1.5" ry=".16439" fill="#999"/>
   <rect transform="matrix(0,-1,-1,0,0,0)" x="-95.797" y="-5.25" width=".60002" height=".5" ry=".054797" fill="#1a1a1a"/>
   <g fill="#fff">
    <rect transform="rotate(90)" x="95.325" y="-7.12" width="2" height=".30089" ry=".15045"/>
    <rect transform="rotate(133.36)" x="65.017" y="-71.935" width="1" height=".30089" ry=".15045"/>
    <rect transform="rotate(223.36)" x="-71.936" y="-66.018" width="1" height=".30089" ry=".15045"/>
    <rect transform="rotate(90)" x="95.325" y="-3.209" width="2" height=".30089" ry=".15045"/>
    <rect transform="rotate(133.36)" x="67.702" y="-69.091" width="1" height=".30089" ry=".15045"/>
    <rect transform="rotate(223.36)" x="-69.092" y="-68.703" width="1" height=".30089" ry=".15045"/>
   </g>
   <rect transform="rotate(90)" x="111.3" y="-5.75" width=".60002" height="1.5" ry=".16439" fill="#999"/>
   <rect transform="matrix(0,-1,-1,0,0,0)" x="-111.9" y="-5.25" width=".60002" height=".5" ry=".054797" fill="#1a1a1a"/>
   <g fill="#fff">
    <rect transform="rotate(90)" x="111.43" y="-7.12" width="2" height=".30089" ry=".15045"/>
    <rect transform="rotate(133.36)" x="76.723" y="-82.988" width="1" height=".30089" ry=".15045"/>
    <rect transform="rotate(223.36)" x="-82.99" y="-77.724" width="1" height=".30089" ry=".15045"/>
    <rect transform="rotate(90)" x="111.43" y="-3.209" width="2" height=".30089" ry=".15045"/>
    <rect transform="rotate(133.36)" x="79.408" y="-80.145" width="1" height=".30089" ry=".15045"/>
    <rect transform="rotate(223.36)" x="-80.146" y="-80.409" width="1" height=".30089" ry=".15045"/>
   </g>
   <rect transform="rotate(90)" x="127.4" y="-5.75" width=".60002" height="1.5" ry=".16439" fill="#999"/>
   <rect transform="matrix(0,-1,-1,0,0,0)" x="-128" y="-5.25" width=".60002" height=".5" ry=".054797" fill="#1a1a1a"/>
   <g fill="#fff">
    <rect transform="rotate(90)" x="127.53" y="-7.12" width="2" height=".30089" ry=".15045"/>
    <rect transform="rotate(133.36)" x="88.428" y="-94.042" width="1" height=".30089" ry=".15045"/>
    <rect transform="rotate(223.36)" x="-94.043" y="-89.43" width="1" height=".30089" ry=".15045"/>
    <rect transform="rotate(90)" x="127.53" y="-3.209" width="2" height=".30089" ry=".15045"/>
    <rect transform="rotate(133.36)" x="91.113" y="-91.199" width="1" height=".30089" ry=".15045"/>
    <rect transform="rotate(223.36)" x="-91.2" y="-92.115" width="1" height=".30089" ry=".15045"/>
   </g>
  </g>
  <g fill="#f95" stroke-width="0">
   <rect transform="rotate(90)" x="19.425" y="-10" width=".099999" height="10" ry="0"/>
   <rect transform="rotate(-90)" x="-5.0751" y="4.259" width="1.75" height="1.4819" ry=".74094"/>
   <rect transform="rotate(-90)" x="-4.3751" y="4.259" width="1.05" height="1.4819" ry="0"/>
   <rect transform="rotate(-90)" x="-5.0751" y="1.3885" width="1.75" height="1.4819" ry=".74094"/>
   <rect transform="rotate(-90)" x="-4.3751" y="1.3885" width="1.05" height="1.4819" ry="0"/>
   <rect transform="rotate(-90)" x="-5.0751" y="7.1295" width="1.75" height="1.4819" ry=".74094"/>
   <rect transform="rotate(-90)" x="-4.3751" y="7.1295" width="1.05" height="1.4819" ry="0"/>
   <rect transform="rotate(-90)" x="-3.4251" y="5e-7" width=".099999" height="10" ry="0"/>
   <rect transform="rotate(90)" x="35.525" y="-10" width=".099999" height="10" ry="0"/>
   <rect transform="rotate(-90)" x="-19.525" y="5e-7" width=".099999" height="10" ry="0"/>
   <rect transform="rotate(90)" x="51.625" y="-10" width=".099999" height="10" ry="0"/>
   <rect transform="rotate(-90)" x="-35.625" y="5e-7" width=".099999" height="10" ry="0"/>
   <rect transform="rotate(90)" x="67.725" y="-10" width=".099999" height="10" ry="0"/>
   <rect transform="rotate(-90)" x="-51.725" y="5e-7" width=".099999" height="10" ry="0"/>
   <rect transform="rotate(-90)" x="-67.825" y="5e-7" width=".099999" height="10" ry="0"/>
   <rect transform="rotate(90)" x="130.48" y="-5.741" width="1.75" height="1.4819" ry=".74094"/>
   <rect transform="rotate(90)" x="131.18" y="-5.741" width="1.05" height="1.4819" ry="0"/>
   <rect transform="rotate(90)" x="130.48" y="-8.6115" width="1.75" height="1.4819" ry=".74094"/>
   <rect transform="rotate(90)" x="131.18" y="-8.6115" width="1.05" height="1.4819" ry="0"/>
   <rect transform="rotate(90)" x="130.48" y="-2.8705" width="1.75" height="1.4819" ry=".74094"/>
   <rect transform="rotate(90)" x="131.18" y="-2.8705" width="1.05" height="1.4819" ry="0"/>
   <rect transform="rotate(90)" x="132.13" y="-10" width=".099999" height="10" ry="0"/>
   <rect transform="rotate(90)" x="83.825" y="-10" width=".099999" height="10" ry="0"/>
   <rect transform="rotate(90)" x="99.925" y="-10" width=".099999" height="10" ry="0"/>
   <rect transform="rotate(-90)" x="-83.925" y="5e-7" width=".099999" height="10" ry="0"/>
   <rect transform="rotate(90)" x="114.38" y="-5.741" width="3.4" height="1.482" ry=".74094"/>
   <rect transform="rotate(90)" x="116.03" y="-10" width=".099999" height="10" ry="0"/>
   <rect transform="rotate(-90)" x="-100.03" y="5e-7" width=".099999" height="10" ry="0"/>
   <rect transform="rotate(-90)" x="-116.13" y="5e-7" width=".099999" height="10" ry="0"/>
   <rect transform="rotate(90)" x="114.38" y="-8.611" width="3.4" height="1.482" ry=".74094"/>
   <rect transform="rotate(90)" x="114.38" y="-2.87" width="3.4" height="1.482" ry=".74094"/>
   <rect transform="rotate(90)" x="98.28" y="-5.741" width="3.4" height="1.482" ry=".74094"/>
   <rect transform="rotate(90)" x="98.28" y="-8.611" width="3.4" height="1.482" ry=".74094"/>
   <rect transform="rotate(90)" x="98.28" y="-2.87" width="3.4" height="1.482" ry=".74094"/>
   <rect transform="rotate(90)" x="82.18" y="-5.741" width="3.4" height="1.482" ry=".74094"/>
   <rect transform="rotate(90)" x="82.18" y="-8.611" width="3.4" height="1.482" ry=".74094"/>
   <rect transform="rotate(90)" x="82.18" y="-2.87" width="3.4" height="1.482" ry=".74094"/>
   <rect transform="rotate(90)" x="66.08" y="-5.7416" width="3.4" height="1.482" ry=".74094"/>
   <rect transform="rotate(90)" x="66.08" y="-8.6116" width="3.4" height="1.482" ry=".74094"/>
   <rect transform="rotate(90)" x="66.08" y="-2.8706" width="3.4" height="1.482" ry=".74094"/>
   <rect transform="rotate(90)" x="49.98" y="-5.7415" width="3.4" height="1.482" ry=".74094"/>
   <rect transform="rotate(90)" x="49.98" y="-8.6115" width="3.4" height="1.482" ry=".74094"/>
   <rect transform="rotate(90)" x="49.98" y="-2.8705" width="3.4" height="1.482" ry=".74094"/>
   <rect transform="rotate(90)" x="33.88" y="-5.7415" width="3.4" height="1.482" ry=".74094"/>
   <rect transform="rotate(90)" x="33.88" y="-8.6115" width="3.4" height="1.482" ry=".74094"/>
   <rect transform="rotate(90)" x="33.88" y="-2.8705" width="3.4" height="1.482" ry=".74094"/>
   <rect transform="rotate(90)" x="17.78" y="-5.7416" width="3.4" height="1.482" ry=".74094"/>
   <rect transform="rotate(90)" x="17.78" y="-8.6116" width="3.4" height="1.482" ry=".74094"/>
   <rect transform="rotate(90)" x="17.78" y="-2.8706" width="3.4" height="1.482" ry=".74094"/>
  </g>
 </g>
 <g transform="translate(25 -3.3251)">
  <rect x="12" y="3.3251" width="6.0086" height="129" ry="1.0977" fill="#4d4d4d" stroke-width="0"/>
  <g fill="#cccccc" font-family="sans-serif" font-size="4.5361px" stroke-width=".11341">
   <text transform="scale(.99996 1)" x="11.930079" y="14.173724" style="line-height:1.25" xml:space="preserve"><tspan x="11.930079" y="14.173724" fill="#cccccc" stroke-width=".11341">15</tspan></text>
   <text transform="scale(.99996 1)" x="12.081176" y="30.281679" style="line-height:1.25" xml:space="preserve"><tspan x="12.081176" y="30.281679" fill="#cccccc" stroke-width=".11341">14</tspan></text>
   <text transform="scale(.99996 1)" x="12.081176" y="46.380943" style="line-height:1.25" xml:space="preserve"><tspan x="12.081176" y="46.380943" fill="#cccccc" stroke-width=".11341">13</tspan></text>
   <text transform="scale(.99996 1)" x="11.930079" y="62.472401" style="line-height:1.25" xml:space="preserve"><tspan x="11.930079" y="62.472401" fill="#cccccc" stroke-width=".11341">12</tspan></text>
   <text transform="scale(.99996 1)" x="12.081176" y="78.580368" style="line-height:1.25" xml:space="preserve"><tspan x="12.081176" y="78.580368" fill="#cccccc" stroke-width=".11341">11</tspan></text>
   <text transform="scale(.99996 1)" x="12.081176" y="94.679634" style="line-height:1.25" xml:space="preserve"><tspan x="12.081176" y="94.679634" fill="#cccccc" stroke-width=".11341">10</tspan></text>
   <text transform="scale(.99996 1)" x="13.668732" y="110.77896" style="line-height:1.25" xml:space="preserve"><tspan x="13.668732" y="110.77896" fill="#cccccc" stroke-width=".11341">9</tspan></text>
   <text transform="scale(.99996 1)" x="13.668732" y="126.87821" style="line-height:1.25" xml:space="preserve"><tspan x="13.668732" y="126.87821" fill="#cccccc" stroke-width=".11341">8</tspan></text>
  </g>
 </g>
 <g transform="rotate(180 17.5 66.115)">
  <rect transform="rotate(90)" x="3.375" y="-10" width="128.8" height="10" ry="0"/>
  <g>
   <rect transform="rotate(90)" x="7.4036" y="-7.9998" width="6.0002" height="6" ry=".25668" fill="#fff" stroke="#808080" stroke-width=".1"/>
   <ellipse transform="rotate(90)" cx="10.404" cy="-5" rx="2.5001" ry="2.5" stroke="#666" stroke-width=".1" led="8"/>
   <g fill="#999" stroke-width="0">
    <rect transform="rotate(90)" x="8.4036" y="-2.5" width="1" height="1" ry=".10959"/>
    <rect transform="rotate(90)" x="11.404" y="-2.5" width="1" height="1" ry=".10959"/>
    <rect transform="rotate(90)" x="8.4036" y="-8.5" width="1" height="1" ry=".10959"/>
    <rect transform="rotate(90)" x="11.404" y="-8.5" width="1" height="1" ry=".10959"/>
   </g>
   <rect transform="rotate(90)" x="23.504" y="-7.9998" width="6.0002" height="6" ry=".25668" fill="#fff" stroke="#808080" stroke-width=".1"/>
   <ellipse transform="rotate(90)" cx="26.504" cy="-5" rx="2.5001" ry="2.5" stroke="#666" stroke-width=".1" led="9"/>
   <g fill="#999" stroke-width="0">
    <rect transform="rotate(90)" x="24.504" y="-2.5" width="1" height="1" ry=".10959"/>
    <rect transform="rotate(90)" x="27.504" y="-2.5" width="1" height="1" ry=".10959"/>
    <rect transform="rotate(90)" x="24.504" y="-8.5" width="1" height="1" ry=".10959"/>
    <rect transform="rotate(90)" x="27.504" y="-8.5" width="1" height="1" ry=".10959"/>
   </g>
   <rect transform="rotate(90)" x="39.604" y="-7.9998" width="6.0002" height="6" ry=".25668" fill="#fff" stroke="#808080" stroke-width=".1"/>
   <ellipse transform="rotate(90)" cx="42.604" cy="-5" rx="2.5001" ry="2.5" stroke="#666" stroke-width=".1" led="10"/>
   <g fill="#999" stroke-width="0">
    <rect transform="rotate(90)" x="40.604" y="-2.5" width="1" height="1" ry=".10959"/>
    <rect transform="rotate(90)" x="43.604" y="-2.5" width="1" height="1" ry=".10959"/>
    <rect transform="rotate(90)" x="40.604" y="-8.5" width="1" height="1" ry=".10959"/>
    <rect transform="rotate(90)" x="43.604" y="-8.5" width="1" height="1" ry=".10959"/>
   </g>
   <rect transform="rotate(90)" x="55.704" y="-7.9998" width="6.0002" height="6" ry=".25668" fill="#fff" stroke="#808080" stroke-width=".1"/>
   <ellipse transform="rotate(90)" cx="58.704" cy="-5" rx="2.5001" ry="2.5" stroke="#666" stroke-width=".1" led="11"/>
   <g fill="#999" stroke-width="0">
    <rect transform="rotate(90)" x="56.704" y="-2.5" width="1" height="1" ry=".10959"/>
    <rect transform="rotate(90)" x="59.704" y="-2.5" width="1" height="1" ry=".10959"/>
    <rect transform="rotate(90)" x="56.704" y="-8.5" width="1" height="1" ry=".10959"/>
    <rect transform="rotate(90)" x="59.704" y="-8.5" width="1" height="1" ry=".10959"/>
   </g>
   <rect transform="rotate(90)" x="71.804" y="-7.9998" width="6.0002" height="6" ry=".25668" fill="#fff" stroke="#808080" stroke-width=".1"/>
   <ellipse transform="rotate(90)" cx="74.804" cy="-5" rx="2.5001" ry="2.5" stroke="#666" stroke-width=".1" led="12"/>
   <g fill="#999" stroke-width="0">
    <rect transform="rotate(90)" x="72.804" y="-2.5" width="1" height="1" ry=".10959"/>
    <rect transform="rotate(90)" x="75.804" y="-2.5" width="1" height="1" ry=".10959"/>
    <rect transform="rotate(90)" x="72.804" y="-8.5" width="1" height="1" ry=".10959"/>
    <rect transform="rotate(90)" x="75.804" y="-8.5" width="1" height="1" ry=".10959"/>
   </g>
   <rect transform="rotate(90)" x="87.904" y="-7.9998" width="6.0002" height="6" ry=".25668" fill="#fff" stroke="#808080" stroke-width=".1"/>
   <ellipse transform="rotate(90)" cx="90.904" cy="-5" rx="2.5001" ry="2.5" stroke="#666" stroke-width=".1" led="13"/>
   <g fill="#999" stroke-width="0">
    <rect transform="rotate(90)" x="88.904" y="-2.5" width="1" height="1" ry=".10959"/>
    <rect transform="rotate(90)" x="91.904" y="-2.5" width="1" height="1" ry=".10959"/>
    <rect transform="rotate(90)" x="88.904" y="-8.5" width="1" height="1" ry=".10959"/>
    <rect transform="rotate(90)" x="91.904" y="-8.5" width="1" height="1" ry=".10959"/>
   </g>
   <rect transform="rotate(90)" x="104" y="-7.9998" width="6.0002" height="6" ry=".25668" fill="#fff" stroke="#808080" stroke-width=".1"/>
   <ellipse transform="rotate(90)" cx="107" cy="-5" rx="2.5001" ry="2.5" stroke="#666" stroke-width=".1" led="14"/>
   <g fill="#999" stroke-width="0">
    <rect transform="rotate(90)" x="105" y="-2.5" width="1" height="1" ry=".10959"/>
    <rect transform="rotate(90)" x="108" y="-2.5" width="1" height="1" ry=".10959"/>
    <rect transform="rotate(90)" x="105" y="-8.5" width="1" height="1" ry=".10959"/>
    <rect transform="rotate(90)" x="108" y="-8.5" width="1" height="1" ry=".10959"/>
   </g>
   <rect transform="rotate(90)" x="120.1" y="-7.9998" width="6.0002" height="6" ry=".25668" fill="#fff" stroke="#808080" stroke-width=".1"/>
   <ellipse transform="rotate(90)" cx="123.1" cy="-5" rx="2.5001" ry="2.5" stroke="#666" stroke-width=".1" led="15"/>
   <g fill="#999" stroke-width="0">
    <rect transform="rotate(90)" x="121.1" y="-2.5" width="1" height="1" ry=".10959"/>
    <rect transform="rotate(90)" x="124.1" y="-2.5" width="1" height="1" ry=".10959"/>
    <rect transform="rotate(90)" x="121.1" y="-8.5" width="1" height="1" ry=".10959"/>
    <rect transform="rotate(90)" x="124.1" y="-8.5" width="1" height="1" ry=".10959"/>
   </g>
  </g>
  <g stroke-width="0">
   <rect transform="rotate(90)" x="14.697" y="-5.75" width=".60002" height="1.5" ry=".16439" fill="#999"/>
   <rect transform="matrix(0,-1,-1,0,0,0)" x="-15.297" y="-5.25" width=".60002" height=".5" ry=".054797" fill="#1a1a1a"/>
   <g fill="#fff">
    <rect transform="rotate(90)" x="14.825" y="-7.12" width="2" height=".30089" ry=".15045"/>
    <rect transform="rotate(133.36)" x="6.4884" y="-16.666" width="1" height=".30089" ry=".15045"/>
    <rect transform="rotate(223.36)" x="-16.667" y="-7.4897" width="1" height=".30089" ry=".15045"/>
    <rect transform="rotate(90)" x="14.825" y="-3.209" width="2" height=".30089" ry=".15045"/>
    <rect transform="rotate(133.36)" x="9.1736" y="-13.822" width="1" height=".30089" ry=".15045"/>
    <rect transform="rotate(223.36)" x="-13.823" y="-10.175" width="1" height=".30089" ry=".15045"/>
   </g>
   <rect transform="rotate(90)" x="30.797" y="-5.75" width=".60002" height="1.5" ry=".16439" fill="#999"/>
   <rect transform="matrix(0,-1,-1,0,0,0)" x="-31.397" y="-5.25" width=".60002" height=".5" ry=".054797" fill="#1a1a1a"/>
   <g fill="#fff">
    <rect transform="rotate(90)" x="30.925" y="-7.12" width="2" height=".30089" ry=".15045"/>
    <rect transform="rotate(133.36)" x="18.194" y="-27.719" width="1" height=".30089" ry=".15045"/>
    <rect transform="rotate(223.36)" x="-27.72" y="-19.195" width="1" height=".30089" ry=".15045"/>
    <rect transform="rotate(90)" x="30.925" y="-3.209" width="2" height=".30089" ry=".15045"/>
    <rect transform="rotate(133.36)" x="20.879" y="-24.876" width="1" height=".30089" ry=".15045"/>
    <rect transform="rotate(223.36)" x="-24.877" y="-21.881" width="1" height=".30089" ry=".15045"/>
   </g>
   <rect transform="rotate(90)" x="46.897" y="-5.75" width=".60002" height="1.5" ry=".16439" fill="#999"/>
   <rect transform="matrix(0,-1,-1,0,0,0)" x="-47.497" y="-5.25" width=".60002" height=".5" ry=".054797" fill="#1a1a1a"/>
   <g fill="#fff">
    <rect transform="rotate(90)" x="47.025" y="-7.12" width="2" height=".30089" ry=".15045"/>
    <rect transform="rotate(133.36)" x="29.9" y="-38.773" width="1" height=".30089" ry=".15045"/>
    <rect transform="rotate(223.36)" x="-38.774" y="-30.901" width="1" height=".30089" ry=".15045"/>
    <rect transform="rotate(90)" x="47.025" y="-3.209" width="2" height=".30089" ry=".15045"/>
    <rect transform="rotate(133.36)" x="32.585" y="-35.93" width="1" height=".30089" ry=".15045"/>
    <rect transform="rotate(223.36)" x="-35.931" y="-33.586" width="1" height=".30089" ry=".15045"/>
   </g>
   <rect transform="rotate(90)" x="62.997" y="-5.75" width=".60002" height="1.5" ry=".16439" fill="#999"/>
   <rect transform="matrix(0,-1,-1,0,0,0)" x="-63.597" y="-5.25" width=".60002" height=".5" ry=".054797" fill="#1a1a1a"/>
   <g fill="#fff">
    <rect transform="rotate(90)" x="63.125" y="-7.12" width="2" height=".30089" ry=".15045"/>
    <rect transform="rotate(133.36)" x="41.606" y="-49.827" width="1" height=".30089" ry=".15045"/>
    <rect transform="rotate(223.36)" x="-49.828" y="-42.607" width="1" height=".30089" ry=".15045"/>
    <rect transform="rotate(90)" x="63.125" y="-3.209" width="2" height=".30089" ry=".15045"/>
    <rect transform="rotate(133.36)" x="44.291" y="-46.983" width="1" height=".30089" ry=".15045"/>
    <rect transform="rotate(223.36)" x="-46.985" y="-45.292" width="1" height=".30089" ry=".15045"/>
   </g>
   <rect transform="rotate(90)" x="79.097" y="-5.75" width=".60002" height="1.5" ry=".16439" fill="#999"/>
   <rect transform="matrix(0,-1,-1,0,0,0)" x="-79.697" y="-5.25" width=".60002" height=".5" ry=".054797" fill="#1a1a1a"/>
   <g fill="#fff">
    <rect transform="rotate(90)" x="79.225" y="-7.12" width="2" height=".30089" ry=".15045"/>
    <rect transform="rotate(133.36)" x="53.311" y="-60.881" width="1" height=".30089" ry=".15045"/>
    <rect transform="rotate(223.36)" x="-60.882" y="-54.312" width="1" height=".30089" ry=".15045"/>
    <rect transform="rotate(90)" x="79.225" y="-3.209" width="2" height=".30089" ry=".15045"/>
    <rect transform="rotate(133.36)" x="55.996" y="-58.037" width="1" height=".30089" ry=".15045"/>
    <rect transform="rotate(223.36)" x="-58.038" y="-56.998" width="1" height=".30089" ry=".15045"/>
   </g>
   <rect transform="rotate(90)" x="95.197" y="-5.75" width=".60002" height="1.5" ry=".16439" fill="#999"/>
   <rect transform="matrix(0,-1,-1,0,0,0)" x="-95.797" y="-5.25" width=".60002" height=".5" ry=".054797" fill="#1a1a1a"/>
   <g fill="#fff">
    <rect transform="rotate(90)" x="95.325" y="-7.12" width="2" height=".30089" ry=".15045"/>
    <rect transform="rotate(133.36)" x="65.017" y="-71.935" width="1" height=".30089" ry=".15045"/>
    <rect transform="rotate(223.36)" x="-71.936" y="-66.018" width="1" height=".30089" ry=".15045"/>
    <rect transform="rotate(90)" x="95.325" y="-3.209" width="2" height=".30089" ry=".15045"/>
    <rect transform="rotate(133.36)" x="67.702" y="-69.091" width="1" height=".30089" ry=".15045"/>
    <rect transform="rotate(223.36)" x="-69.092" y="-68.703" width="1" height=".30089" ry=".15045"/>
   </g>
   <rect transform="rotate(90)" x="111.3" y="-5.75" width=".60002" height="1.5" ry=".16439" fill="#999"/>
   <rect transform="matrix(0,-1,-1,0,0,0)" x="-111.9" y="-5.25" width=".60002" height=".5" ry=".054797" fill="#1a1a1a"/>
   <g fill="#fff">
    <rect transform="rotate(90)" x="111.43" y="-7.12" width="2" height=".30089" ry=".15045"/>
    <rect transform="rotate(133.36)" x="76.723" y="-82.988" width="1" height=".30089" ry=".15045"/>
    <rect transform="rotate(223.36)" x="-82.99" y="-77.724" width="1" height=".30089" ry=".15045"/>
    <rect transform="rotate(90)" x="111.43" y="-3.209" width="2" height=".30089" ry=".15045"/>
    <rect transform="rotate(133.36)" x="79.408" y="-80.145" width="1" height=".30089" ry=".15045"/>
    <rect transform="rotate(223.36)" x="-80.146" y="-80.409" width="1" height=".30089" ry=".15045"/>
   </g>
   <rect transform="rotate(90)" x="127.4" y="-5.75" width=".60002" height="1.5" ry=".16439" fill="#999"/>
   <rect transform="matrix(0,-1,-1,0,0,0)" x="-128" y="-5.25" width=".60002" height=".5" ry=".054797" fill="#1a1a1a"/>
   <g fill="#fff">
    <rect transform="rotate(90)" x="127.53" y="-7.12" width="2" height=".30089" ry=".15045"/>
    <rect transform="rotate(133.36)" x="88.428" y="-94.042" width="1" height=".30089" ry=".15045"/>
    <rect transform="rotate(223.36)" x="-94.043" y="-89.43" width="1" height=".30089" ry=".15045"/>
    <rect transform="rotate(90)" x="127.53" y="-3.209" width="2" height=".30089" ry=".15045"/>
    <rect transform="rotate(133.36)" x="91.113" y="-91.199" width="1" height=".30089" ry=".15045"/>
    <rect transform="rotate(223.36)" x="-91.2" y="-92.115" width="1" height=".30089" ry=".15045"/>
   </g>
  </g>
  <g fill="#f95" stroke-width="0">
   <rect transform="rotate(90)" x="19.425" y="-10" width=".099999" height="10" ry="0"/>
   <rect transform="rotate(-90)" x="-5.0751" y="4.259" width="1.75" height="1.4819" ry=".74094"/>
   <rect transform="rotate(-90)" x="-4.3751" y="4.259" width="1.05" height="1.4819" ry="0"/>
   <rect transform="rotate(-90)" x="-5.0751" y="1.3885" width="1.75" height="1.4819" ry=".74094"/>
   <rect transform="rotate(-90)" x="-4.3751" y="1.3885" width="1.05" height="1.4819" ry="0"/>
   <rect transform="rotate(-90)" x="-5.0751" y="7.1295" width="1.75" height="1.4819" ry=".74094"/>
   <rect transform="rotate(-90)" x="-4.3751" y="7.1295" width="1.05" height="1.4819" ry="0"/>
   <rect transform="rotate(-90)" x="-3.4251" y="5e-7" width=".099999" height="10" ry="0"/>
   <rect transform="rotate(90)" x="35.525" y="-10" width=".099999" height="10" ry="0"/>
   <rect transform="rotate(-90)" x="-19.525" y="5e-7" width=".099999" height="10" ry="0"/>
   <rect transform="rotate(90)" x="51.625" y="-10" width=".099999" height="10" ry="0"/>
   <rect transform="rotate(-90)" x="-35.625" y="5e-7" width=".099999" height="10" ry="0"/>
   <rect transform="rotate(90)" x="67.725" y="-10" width=".099999" height="10" ry="0"/>
   <rect transform="rotate(-90)" x="-51.725" y="5e-7" width=".099999" height="10" ry="0"/>
   <rect transform="rotate(-90)" x="-67.825" y="5e-7" width=".099999" height="10" ry="0"/>
   <rect transform="rotate(90)" x="130.48" y="-5.741" width="1.75" height="1.4819" ry=".74094"/>
   <rect transform="rotate(90)" x="131.18" y="-5.741" width="1.05" height="1.4819" ry="0"/>
   <rect transform="rotate(90)" x="130.48" y="-8.6115" width="1.75" height="1.4819" ry=".74094"/>
   <rect transform="rotate(90)" x="131.18" y="-8.6115" width="1.05" height="1.4819" ry="0"/>
   <rect transform="rotate(90)" x="130.48" y="-2.8705" width="1.75" height="1.4819" ry=".74094"/>
   <rect transform="rotate(90)" x="131.18" y="-2.8705" width="1.05" height="1.4819" ry="0"/>
   <rect transform="rotate(90)" x="132.13" y="-10" width=".099999" height="10" ry="0"/>
   <rect transform="rotate(90)" x="83.825" y="-10" width=".099999" height="10" ry="0"/>
   <rect transform="rotate(90)" x="99.925" y="-10" width=".099999" height="10" ry="0"/>
   <rect transform="rotate(-90)" x="-83.925" y="5e-7" width=".099999" height="10" ry="0"/>
   <rect transform="rotate(90)" x="114.38" y="-5.741" width="3.4" height="1.482" ry=".74094"/>
   <rect transform="rotate(90)" x="116.03" y="-10" width=".099999" height="10" ry="0"/>
   <rect transform="rotate(-90)" x="-100.03" y="5e-7" width=".099999" height="10" ry="0"/>
   <rect transform="rotate(-90)" x="-116.13" y="5e-7" width=".099999" height="10" ry="0"/>
   <rect transform="rotate(90)" x="114.38" y="-8.611" width="3.4" height="1.482" ry=".74094"/>
   <rect transform="rotate(90)" x="114.38" y="-2.87" width="3.4" height="1.482" ry=".74094"/>
   <rect transform="rotate(90)" x="98.28" y="-5.741" width="3.4" height="1.482" ry=".74094"/>
   <rect transform="rotate(90)" x="98.28" y="-8.611" width="3.4" height="1.482" ry=".74094"/>
   <rect transform="rotate(90)" x="98.28" y="-2.87" width="3.4" height="1.482" ry=".74094"/>
   <rect transform="rotate(90)" x="82.18" y="-5.741" width="3.4" height="1.482" ry=".74094"/>
   <rect transform="rotate(90)" x="82.18" y="-8.611" width="3.4" height="1.482" ry=".74094"/>
   <rect transform="rotate(90)" x="82.18" y="-2.87" width="3.4" height="1.482" ry=".74094"/>
   <rect transform="rotate(90)" x="66.08" y="-5.7416" width="3.4" height="1.482" ry=".74094"/>
   <rect transform="rotate(90)" x="66.08" y="-8.6116" width="3.4" height="1.482" ry=".74094"/>
   <rect transform="rotate(90)" x="66.08" y="-2.8706" width="3.4" height="1.482" ry=".74094"/>
   <rect transform="rotate(90)" x="49.98" y="-5.7415" width="3.4" height="1.482" ry=".74094"/>
   <rect transform="rotate(90)" x="49.98" y="-8.6115" width="3.4" height="1.482" ry=".74094"/>
   <rect transform="rotate(90)" x="49.98" y="-2.8705" width="3.4" height="1.482" ry=".74094"/>
   <rect transform="rotate(90)" x="33.88" y="-5.7415" width="3.4" height="1.482" ry=".74094"/>
   <rect transform="rotate(90)" x="33.88" y="-8.6115" width="3.4" height="1.482" ry=".74094"/>
   <rect transform="rotate(90)" x="33.88" y="-2.8705" width="3.4" height="1.482" ry=".74094"/>
   <rect transform="rotate(90)" x="17.78" y="-5.7416" width="3.4" height="1.482" ry=".74094"/>
   <rect transform="rotate(90)" x="17.78" y="-8.6116" width="3.4" height="1.482" ry=".74094"/>
   <rect transform="rotate(90)" x="17.78" y="-2.8706" width="3.4" height="1.482" ry=".74094"/>
  </g>
 </g>
 <g transform="translate(0 -3.3251)">
  <g fill="none" stroke-width=".6">
   <path d="m2.0652 131.47s-1.5793 3.9174 13.321 3.9385c14.901 0.021 17.488-2.8767 17.453-4.0106" stroke="#f00"/>
   <path d="m4.9848 131.5s-0.48548 3.2845 10.298 3.1893c10.783-0.0952 14.814-1.8395 14.774-3.2265" stroke="#0f0"/>
   <path d="m7.8879 131.48s-0.33779 2.5758 6.9728 2.4608c7.3106-0.11495 12.398-0.47316 12.398-2.4556" stroke="#000"/>
  </g>
  <g fill="#ccc" stroke-width="0">
   <ellipse cx="2.1541" cy="131.43" rx=".5" ry=".5"/>
   <ellipse cx="4.9835" cy="131.43" rx=".5" ry=".5"/>
   <ellipse cx="7.9046" cy="131.43" rx=".5" ry=".5"/>
   <ellipse cx="27.131" cy="131.43" rx=".5" ry=".5"/>
   <ellipse cx="29.96" cy="131.43" rx=".5" ry=".5"/>
   <ellipse cx="32.881" cy="131.43" rx=".5" ry=".5"/>
  </g>
 </g>
</svg>
