<svg width="224mm" height="97mm" version="1.1" viewBox="0 0 224 97" xmlns="http://www.w3.org/2000/svg">
 <g>
  <path d="m92.823 31.816s22.979-3.3301 38.451-0.36221c15.472 2.9679-1.5985 10.16-1.5985 10.16s-16.258-1.7425-34.433 0.37243c-18.175 2.1149-2.4189-10.171-2.4189-10.171z" stroke="#000" stroke-width=".26458px"/>
  <g fill="#ececec" font-family="sans-serif" font-size="10.214px" stroke-width=".25536">
   <text transform="scale(.99999 1)" x="148.92642" y="52.133911" style="line-height:1.25" xml:space="preserve"><tspan x="148.92642" y="52.133911" fill="#ececec" stroke-width=".25536">12</tspan></text>
   <text transform="scale(.99999 1)" x="172.17104" y="31.986958" style="line-height:1.25" xml:space="preserve"><tspan x="172.17104" y="31.986958" fill="#ececec" stroke-width=".25536">0</tspan></text>
   <text transform="scale(.99999 1)" x="41.190037" y="72.035881" style="line-height:1.25" xml:space="preserve"><tspan x="41.190037" y="72.035881" fill="#ececec" stroke-width=".25536">24</tspan></text>
   <text transform="scale(.99999 1)" x="21.189754" y="52.035664" style="line-height:1.25" xml:space="preserve"><tspan x="21.189754" y="52.035664" fill="#ececec" stroke-width=".25536">28</tspan></text>
   <text transform="scale(.99999 1)" x="61.190319" y="52.035664" style="line-height:1.25" xml:space="preserve"><tspan x="61.190319" y="52.035664" fill="#ececec" stroke-width=".25536">20</tspan></text>
   <text transform="scale(.99999 1)" x="41.190037" y="32.036446" style="line-height:1.25" xml:space="preserve"><tspan x="41.190037" y="32.036446" fill="#ececec" stroke-width=".25536">16</tspan></text>
   <text transform="scale(.99999 1)" x="192.60445" y="51.861778" style="line-height:1.25" xml:space="preserve"><tspan x="192.60445" y="51.861778" fill="#ececec" stroke-width=".25536">4</tspan></text>
   <text transform="scale(.99999 1)" x="172.54822" y="72.048866" style="line-height:1.25" xml:space="preserve"><tspan x="172.54822" y="72.048866" fill="#ececec" stroke-width=".25536">8</tspan></text>
  </g>
  <g fill="none">
   <g stroke-width="1.8">
    <path d="m90.843 27.226s2.8742-0.7359 4.7357-2.4161c1.8615-1.6802 10.733-17.244 16.553-17.713 5.8203-0.46915 8.4079 12.078 20.889 18.718" stroke="#f70000"/>
    <path d="m89.719 25.312s12.534-3.0263 20.531-11.698c7.9978-8.6717 17.806 0.65485 17.806 0.65485s3.6272 2.8467 7.282 11.028" stroke="#3eff24"/>
    <path d="m91.484 29.457s5.6459-15.665 10.44-17.352c4.7939-1.6861 3.1636 1.8665 9.909 1.968s16.868 4.5004 22.178 9.8738" stroke="#000"/>
   </g>
   <circle cx="47.994" cy="47.994" r="43.494" stroke="#b45e1f" stroke-width="9"/>
   <ellipse cx="47.987" cy="47.988" rx="33.613" ry="33.614" stroke="#2b2b2b" stroke-width="10.76"/>
  </g>
  <g stroke="#fff">
   <g stroke-width=".31965">
    <rect transform="matrix(-.99999 .0040486 .01318 -.99991 0 0)" x="-18.101" y="-51.796" width="6.5953" height="6.6552" ry=".099803" led="28"/>
    <rect transform="matrix(-.38642 -.92232 .92884 -.37047 0 0)" x="-32.351" y="22.175" width="6.5953" height="6.6552" ry=".099803" led="31"/>
    <rect transform="matrix(-.92542 -.37894 .39483 -.91876 0 0)" x="-66.757" y="-63.639" width="6.5953" height="6.6552" ry=".099803" led="25"/>
    <rect transform="matrix(-.92542 -.37894 .39483 -.91876 0 0)" x="-65.871" y="3.5976" width="6.5953" height="6.6552" ry=".099803" led="17"/>
    <rect transform="matrix(-.92542 -.37894 .39483 -.91876 0 0)" x="-32.7" y="-29.884" width="6.5953" height="6.6552" ry=".099803" led="29"/>
    <rect transform="matrix(-.92232 .38642 -.37047 -.92884 0 0)" x="-63.364" y="-66.58" width="6.5953" height="6.6552" ry=".099803" led="19"/>
    <rect transform="matrix(-.38642 -.92232 .92884 -.37047 0 0)" x="-66.41" y="-11.579" width="6.5953" height="6.6552" ry=".099803" led="27"/>
    <rect transform="matrix(-.37894 .92542 -.91876 -.39483 0 0)" x="21.87" y="-99.513" width="6.5953" height="6.6552" ry=".099803" led="21"/>
   </g>
   <rect transform="matrix(-.39443 -.91892 .92557 -.37859 0 0)" x="-99.814" y="21.06" width="6.5951" height="6.655" ry=".0998" stroke-width=".31964" led="23"/>
   <g stroke-width=".31965">
    <rect transform="matrix(-.70996 -.70424 .71637 -.69773 0 0)" x="-71.762" y="-37.664" width="6.5953" height="6.6552" ry=".099803" led="26"/>
    <rect transform="matrix(-.70996 -.70424 .71637 -.69773 0 0)" x="-70.876" y="29.572" width="6.5953" height="6.6552" ry=".099803" led="18"/>
    <rect transform="matrix(-.70996 -.70424 .71637 -.69773 0 0)" x="-104.93" y="-4.1819" width="6.5953" height="6.6552" ry=".099803" led="22"/>
    <rect transform="matrix(-.70996 -.70424 .71637 -.69773 0 0)" x="-37.703" y="-3.9097" width="6.5953" height="6.6552" ry=".099803" led="30"/>
    <rect transform="matrix(-.99999 .0040486 .01318 -.99991 0 0)" x="-52.16" y="-85.55" width="6.5953" height="6.6552" ry=".099803" led="24"/>
    <rect transform="matrix(-.99999 .0040486 .01318 -.99991 0 0)" x="-51.274" y="-18.313" width="6.5953" height="6.6552" ry=".099803" led="16"/>
    <rect transform="matrix(-.99999 .0040486 .01318 -.99991 0 0)" x="-85.333" y="-52.068" width="6.5953" height="6.6552" ry=".099803" led="20"/>
   </g>
  </g>
  <circle cx="175.82" cy="48.292" r="43.494" fill="none" stroke="#b45e1f" stroke-width="9"/>
  <ellipse cx="175.81" cy="48.286" rx="33.613" ry="33.614" fill="none" stroke="#2b2b2b" stroke-width="10.76"/>
  <g stroke="#fff">
   <g stroke-width=".31965">
    <rect transform="matrix(-.99999 .0040486 .01318 -.99991 0 0)" x="-145.93" y="-52.612" width="6.5953" height="6.6552" ry=".099803" led="12"/>
    <rect transform="matrix(-.38642 -.92232 .92884 -.37047 0 0)" x="-79.99" y="139.97" width="6.5953" height="6.6552" ry=".099803" led="15"/>
    <rect transform="matrix(-.92542 -.37894 .39483 -.91876 0 0)" x="-184.33" y="-15.471" width="6.5953" height="6.6552" ry=".099803" led="9"/>
    <rect transform="matrix(-.92542 -.37894 .39483 -.91876 0 0)" x="-183.44" y="51.765" width="6.5953" height="6.6552" ry=".099803" led="1"/>
    <rect transform="matrix(-.92542 -.37894 .39483 -.91876 0 0)" x="-150.27" y="18.284" width="6.5953" height="6.6552" ry=".099803" led="13"/>
    <rect transform="matrix(-.92232 .38642 -.37047 -.92884 0 0)" x="-182" y="-116.26" width="6.5953" height="6.6552" ry=".099803" led="3"/>
    <rect transform="matrix(-.38642 -.92232 .92884 -.37047 0 0)" x="-114.05" y="106.22" width="6.5953" height="6.6552" ry=".099803" led="11"/>
    <rect transform="matrix(-.37894 .92542 -.91876 -.39483 0 0)" x="-28.331" y="-217.93" width="6.5953" height="6.6552" ry=".099803" led="5"/>
   </g>
   <rect transform="matrix(-.39443 -.91892 .92557 -.37859 0 0)" x="-148.49" y="138.42" width="6.5951" height="6.655" ry=".0998" stroke-width=".31964" led="7"/>
   <g stroke-width=".31965">
    <rect transform="matrix(-.70996 -.70424 .71637 -.69773 0 0)" x="-161.17" y="52.154" width="6.5953" height="6.6552" ry=".099803" led="10"/>
    <rect transform="matrix(-.70996 -.70424 .71637 -.69773 0 0)" x="-160.29" y="119.39" width="6.5953" height="6.6552" ry=".099803" led="2"/>
    <rect transform="matrix(-.70996 -.70424 .71637 -.69773 0 0)" x="-194.35" y="85.636" width="6.5953" height="6.6552" ry=".099803" led="6"/>
    <rect transform="matrix(-.70996 -.70424 .71637 -.69773 0 0)" x="-127.11" y="85.909" width="6.5953" height="6.6552" ry=".099803" led="14"/>
    <rect transform="matrix(-.99999 .0040486 .01318 -.99991 0 0)" x="-179.99" y="-86.366" width="6.5953" height="6.6552" ry=".099803" led="8"/>
    <rect transform="matrix(-.99999 .0040486 .01318 -.99991 0 0)" x="-179.11" y="-19.13" width="6.5953" height="6.6552" ry=".099803" led="0"/>
    <rect transform="matrix(-.99999 .0040486 .01318 -.99991 0 0)" x="-213.17" y="-52.884" width="6.5953" height="6.6552" ry=".099803" led="4"/>
   </g>
  </g>
 </g>
</svg>
