<svg width="81mm" height="81mm" version="1.1" viewBox="0 0 81 81" xmlns="http://www.w3.org/2000/svg">
 <g>
  <g fill="#ececec" font-family="sans-serif" font-size="10.214px" stroke-width=".25536">
   <text transform="scale(.99999 1)" x="14.17927" y="44.19397" style="line-height:1.25" xml:space="preserve"><tspan x="14.17927" y="44.19397" fill="#ececec" stroke-width=".25536">12</tspan></text>
   <text transform="scale(.99999 1)" x="36.585064" y="22.297825" style="line-height:1.25" xml:space="preserve"><tspan x="36.585064" y="22.297825" fill="#ececec" stroke-width=".25536">0</tspan></text>
   <text transform="scale(.99999 1)" x="58.606354" y="43.78484" style="line-height:1.25" xml:space="preserve"><tspan x="58.606354" y="43.78484" fill="#ececec" stroke-width=".25536">4</tspan></text>
   <text transform="scale(.99999 1)" x="37.227772" y="64.92527" style="line-height:1.25" xml:space="preserve"><tspan x="37.227772" y="64.92527" fill="#ececec" stroke-width=".25536">8</tspan></text>
  </g>
  <ellipse cx="40.143" cy="40.144" rx="33.613" ry="33.614" fill="none" stroke="#999" stroke-width="13.06"/>
  <ellipse cx="40.143" cy="40.144" rx="33.613" ry="33.614" fill="none" stroke="#2b2b2b" stroke-width="10.76"/>
  <g stroke="#fff">
   <g stroke-width=".31965">
    <rect transform="matrix(-.99999 .0040486 .01318 -.99991 0 0)" x="-10.153" y="-43.919" width="6.5953" height="6.6552" ry=".099803" led="12"/>
    <rect transform="matrix(-.38642 -.92232 .92884 -.37047 0 0)" x="-22.158" y="17.97" width="6.5953" height="6.6552" ry=".099803" led="15"/>
    <rect transform="matrix(-.92542 -.37894 .39483 -.91876 0 0)" x="-56.452" y="-59.352" width="6.5953" height="6.6552" ry=".099803" led="9"/>
    <rect transform="matrix(-.92542 -.37894 .39483 -.91876 0 0)" x="-55.566" y="7.8848" width="6.5953" height="6.6552" ry=".099803" led="1"/>
    <rect transform="matrix(-.92542 -.37894 .39483 -.91876 0 0)" x="-22.395" y="-25.597" width="6.5953" height="6.6552" ry=".099803" led="13"/>
    <rect transform="matrix(-.92232 .38642 -.37047 -.92884 0 0)" x="-58.983" y="-56.313" width="6.5953" height="6.6552" ry=".099803" led="3"/>
    <rect transform="matrix(-.38642 -.92232 .92884 -.37047 0 0)" x="-56.217" y="-15.783" width="6.5953" height="6.6552" ry=".099803" led="11"/>
    <rect transform="matrix(-.37894 .92542 -.91876 -.39483 0 0)" x="17.759" y="-89.28" width="6.5953" height="6.6552" ry=".099803" led="5"/>
   </g>
   <rect transform="matrix(-.39443 -.91892 .92557 -.37859 0 0)" x="-89.583" y="16.945" width="6.5951" height="6.655" ry=".0998" stroke-width=".31964" led="7"/>
   <g stroke-width=".31965">
    <rect transform="matrix(-.70996 -.70424 .71637 -.69773 0 0)" x="-60.668" y="-37.619" width="6.5953" height="6.6552" ry=".099803" led="10"/>
    <rect transform="matrix(-.70996 -.70424 .71637 -.69773 0 0)" x="-59.782" y="29.617" width="6.5953" height="6.6552" ry=".099803" led="2"/>
    <rect transform="matrix(-.70996 -.70424 .71637 -.69773 0 0)" x="-93.841" y="-4.137" width="6.5953" height="6.6552" ry=".099803" led="6"/>
    <rect transform="matrix(-.70996 -.70424 .71637 -.69773 0 0)" x="-26.61" y="-3.8648" width="6.5953" height="6.6552" ry=".099803" led="14"/>
    <rect transform="matrix(-.99999 .0040486 .01318 -.99991 0 0)" x="-44.212" y="-77.673" width="6.5953" height="6.6552" ry=".099803" led="8"/>
    <rect transform="matrix(-.99999 .0040486 .01318 -.99991 0 0)" x="-43.326" y="-10.437" width="6.5953" height="6.6552" ry=".099803" led="0"/>
    <rect transform="matrix(-.99999 .0040486 .01318 -.99991 0 0)" x="-77.385" y="-44.191" width="6.5953" height="6.6552" ry=".099803" led="4"/>
   </g>
  </g>
 </g>
</svg>
